<?xml version="1.0" standalone="no"?>
<!DOCTYPE svg PUBLIC "-//W3C//DTD SVG 20010904//EN"
 "http://www.w3.org/TR/2001/REC-SVG-20010904/DTD/svg10.dtd">
<svg version="1.0" xmlns="http://www.w3.org/2000/svg"
 width="512.000000pt" height="512.000000pt" viewBox="0 0 512.000000 512.000000"
 preserveAspectRatio="xMidYMid meet">
<metadata>
Created by potrace 1.14, written by Peter Selinger 2001-2017
</metadata>
<g transform="translate(0.000000,512.000000) scale(0.100000,-0.100000)"
fill="#000000" stroke="none">
<path d="M0 2565 l0 -807 93 6 c50 4 99 9 107 11 14 3 68 10 175 20 28 3 66 7
85 10 19 2 64 7 100 10 35 3 78 8 95 10 39 5 126 14 310 30 38 3 86 8 105 10
19 2 69 7 110 10 41 3 95 8 120 10 117 11 261 22 390 31 52 3 115 7 140 9 206
14 440 20 755 20 328 -1 432 -4 695 -20 36 -2 110 -6 165 -10 55 -3 116 -7
135 -10 19 -2 76 -7 125 -11 50 -3 106 -7 125 -9 19 -2 71 -6 115 -10 44 -3
96 -8 115 -10 19 -2 64 -7 100 -10 78 -7 153 -14 200 -20 19 -2 107 -11 195
-20 88 -8 174 -17 190 -20 17 -2 62 -7 100 -10 39 -4 77 -9 85 -10 8 -2 54 -6
103 -10 l87 -7 0 806 0 807 -52 -6 c-29 -3 -64 -8 -78 -10 -57 -9 -297 -39
-400 -50 -30 -4 -66 -8 -80 -10 -38 -5 -108 -14 -175 -20 -33 -3 -91 -10 -130
-15 -38 -5 -99 -12 -135 -15 -36 -3 -81 -8 -100 -10 -19 -3 -62 -7 -95 -10
-33 -3 -87 -8 -119 -11 -71 -7 -115 -11 -226 -19 -47 -4 -98 -8 -114 -10 -16
-2 -81 -7 -145 -11 -64 -3 -129 -8 -146 -9 -231 -21 -918 -22 -1125 -1 -19 2
-89 7 -155 11 -66 3 -133 8 -150 10 -16 2 -70 7 -119 10 -49 4 -96 8 -105 10
-9 1 -54 6 -101 9 -47 4 -103 9 -125 11 -65 7 -148 16 -180 19 -16 2 -61 7
-100 10 -38 4 -81 9 -95 11 -14 2 -52 7 -85 10 -33 3 -71 8 -85 10 -14 3 -50
7 -80 10 -60 5 -141 14 -180 20 -38 6 -178 24 -245 31 -33 3 -67 8 -76 9 -9 2
-39 6 -67 10 l-52 6 0 -806z"/>
</g>
</svg>
